<?xml version="1.0" encoding="UTF-8" standalone="no"?>
<svg
   xmlns:dc="http://purl.org/dc/elements/1.1/"
   xmlns:cc="http://creativecommons.org/ns#"
   xmlns:rdf="http://www.w3.org/1999/02/22-rdf-syntax-ns#"
   xmlns:svg="http://www.w3.org/2000/svg"
   xmlns="http://www.w3.org/2000/svg"
   xmlns:sodipodi="http://sodipodi.sourceforge.net/DTD/sodipodi-0.dtd"
   xmlns:inkscape="http://www.inkscape.org/namespaces/inkscape"
   version="1.1"
   id="svg2"
   xml:space="preserve"
   width="258.66666"
   height="258.66666"
   viewBox="0 0 258.66666 258.66666"
   sodipodi:docname="Orion.eps"><metadata
     id="metadata8"><rdf:RDF><cc:Work
         rdf:about=""><dc:format>image/svg+xml</dc:format><dc:type
           rdf:resource="http://purl.org/dc/dcmitype/StillImage" /></cc:Work></rdf:RDF></metadata><defs
     id="defs6" /><sodipodi:namedview
     pagecolor="#ffffff"
     bordercolor="#666666"
     borderopacity="1"
     objecttolerance="10"
     gridtolerance="10"
     guidetolerance="10"
     inkscape:pageopacity="0"
     inkscape:pageshadow="2"
     inkscape:window-width="640"
     inkscape:window-height="480"
     id="namedview4" /><g
     id="g10"
     inkscape:groupmode="layer"
     inkscape:label="ink_ext_XXXXXX"
     transform="matrix(1.3333333,0,0,-1.3333333,0,258.66667)"><g
       id="g12"
       transform="scale(0.1)"><path
         d="M 2.59766,1933.23 H 1930.16 V 5.66797 H 2.59766 V 1933.23"
         style="fill:#ffffff;fill-opacity:1;fill-rule:evenodd;stroke:none"
         id="path14" /><path
         d="m 1880.39,1096.68 v 21.43 h 7.14 l 3.9,-14.29 3.89,14.29 h 6.49 v -21.43 h -3.89 v 16.88 l -4.55,-16.88 h -3.89 l -4.55,16.88 v -16.88 h -4.54"
         style="fill:#231f20;fill-opacity:1;fill-rule:evenodd;stroke:none"
         id="path16" /><path
         d="m 1866.76,1096.68 v 17.53 h -6.49 v 3.9 h 17.52 v -3.9 h -6.49 v -17.53 h -4.54"
         style="fill:#231f20;fill-opacity:1;fill-rule:evenodd;stroke:none"
         id="path18" /><path
         d="m 1627.87,1118.11 174.62,-193.45 v 193.45 h 31.81 V 831.828 h -31.81 L 1596.06,1055.79 V 831.828 h -31.81 v 286.282 c 21.42,0 42.2,0 63.62,0"
         style="fill:#231f20;fill-opacity:1;fill-rule:evenodd;stroke:none"
         id="path20" /><path
         d="m 941.063,1118.11 c 38.296,0 86.987,-30.52 88.277,-76.61 1.3,-44.789 -32.453,-70.105 -81.137,-77.242 l 88.277,-132.43 h -70.101 l -97.375,149.953 h 34.406 c 39.598,0 63.617,27.269 62.969,57.779 0,35.7 -24.02,60.37 -73.352,60.37 H 852.129 V 831.828 h -67.516 v 286.282 c 51.934,0 103.867,0 156.45,0"
         style="fill:#231f20;fill-opacity:1;fill-rule:evenodd;stroke:none"
         id="path22" /><path
         d="m 1081.28,1118.11 h 68.16 V 831.828 h -68.16 v 286.282"
         style="fill:#231f20;fill-opacity:1;fill-rule:evenodd;stroke:none"
         id="path24" /><path
         d="m 1357.17,1122 c 93.47,0 169.43,-66.86 169.43,-149.953 0,-81.793 -75.96,-149.305 -169.43,-149.305 -93.48,0 -169.43,67.512 -169.43,149.305 0,83.093 75.95,149.953 169.43,149.953"
         style="fill:#231f20;fill-opacity:1;fill-rule:evenodd;stroke:none"
         id="path26" /><path
         d="m 571.043,1122 c 93.48,0 169.43,-66.86 169.43,-149.953 0,-81.793 -75.95,-149.305 -169.43,-149.305 -93.48,0 -170.078,67.512 -170.078,149.305 0,83.093 76.598,149.953 170.078,149.953"
         style="fill:#231f20;fill-opacity:1;fill-rule:evenodd;stroke:none"
         id="path28" /><path
         d="m 310.082,861.043 h -61.668 c -7.141,0 -12.984,-4.543 -12.984,-9.738 0,-5.844 7.789,-9.09 12.984,-9.09 h 40.895 c -27.262,-20.121 -61.02,-32.457 -97.371,-32.457 -88.938,0 -160.9927,72.058 -160.9927,159.691 0,87.641 72.0547,159.691 160.9927,159.691 34.402,0 66.863,-11.03 92.828,-29.21 H 175.707 c -7.141,0 -12.98,-4.54 -12.98,-9.73 0,-6.5 7.789,-9.1 12.98,-9.1 h 131.777 c 8.438,-9.08 16.231,-18.82 22.723,-29.21 H 201.023 c -7.14,0 -12.332,-3.89 -12.332,-9.09 0,-7.14 7.789,-9.73 12.332,-9.73 h 138.922 c 3.895,-9.09 7.141,-18.83 9.735,-29.22 H 219.848 c -7.141,0 -12.981,-3.893 -12.981,-9.084 0,-6.493 7.789,-9.739 12.981,-9.739 h 132.429 c 0.649,-5.191 1.297,-10.386 1.297,-15.578 0,-3.89 0,-8.437 -0.648,-12.332 H 234.129 c -7.141,0 -12.981,-4.543 -12.981,-9.734 0,-6.492 7.79,-9.09 12.981,-9.09 h 116.203 c -1.949,-10.387 -5.195,-20.125 -9.09,-29.215 H 244.52 c -7.141,0 -12.989,-4.543 -12.989,-9.086 0,-7.14 7.793,-9.738 12.989,-9.738 h 87.636 c -6.492,-10.387 -13.633,-20.121 -22.074,-29.211"
         style="fill:#231f20;fill-opacity:1;fill-rule:evenodd;stroke:none"
         id="path30" /><path
         d="m 572.344,1103.82 c 72.054,0 98.019,-59.07 98.019,-131.125 0,-71.406 -25.965,-129.832 -98.019,-129.832 -72.059,0 -98.676,58.426 -98.676,129.832 0,72.055 26.617,131.125 98.676,131.125"
         style="fill:#ffffff;fill-opacity:1;fill-rule:evenodd;stroke:none"
         id="path32" /><path
         d="m 1358.46,1103.82 c 72.06,0 98.68,-59.07 98.68,-131.125 0,-71.406 -26.62,-129.832 -98.68,-129.832 -72.05,0 -98.66,58.426 -98.66,129.832 0,72.055 26.61,131.125 98.66,131.125"
         style="fill:#ffffff;fill-opacity:1;fill-rule:evenodd;stroke:none"
         id="path34" /></g></g></svg>
